<svg width="180" height="180" viewBox="0 0 180 180" fill="none" xmlns="http://www.w3.org/2000/svg">
<rect width="180" height="180" rx="30" fill="white"/>
<path d="M70.4729 76.6926C73.4658 74.5965 77.2488 74.5484 80.1701 76.4535C82.0553 77.6829 82.6053 79.9901 82.6054 82.0184V87.7256C82.6721 89.7496 83.6344 91.3056 85.0744 92.3814C86.5279 93.4673 88.4725 94.0635 90.4501 94.1082C92.4277 94.1528 94.3896 93.645 95.8819 92.5843C97.3559 91.5364 98.394 89.9359 98.5505 87.7156V80.4026C98.5505 79.4818 98.6164 78.2443 99.4856 77.4201C100.573 76.3886 102.365 75.7961 104.22 75.6825C106.087 75.5683 108.126 75.9313 109.749 76.9325C111.291 77.8839 111.809 79.707 111.971 81.2787C112.733 88.6869 113.049 94.9748 112.765 100.233C112.481 105.489 111.597 109.752 109.935 113.089C108.265 116.441 105.818 118.84 102.461 120.367C99.1192 121.887 94.9056 122.529 89.7104 122.436C84.45 122.485 80.2521 121.82 76.9689 120.294C73.6657 118.759 71.3204 116.368 69.7547 113.042C68.1974 109.735 67.4189 105.519 67.1988 100.331C66.9786 95.1389 67.3162 88.9329 68.0186 81.6227C68.1933 79.8047 68.8376 77.838 70.4729 76.6926ZM103.508 106.609C103.508 105.127 101.851 104.238 100.57 104.984C92.2509 105.019 87.749 104.984 79.6135 105.019C78.347 104.267 76.6904 105.142 76.6903 106.615C76.6903 107.265 77.0348 107.869 77.6005 108.19C87.211 113.636 92.9856 113.717 102.596 108.199C103.163 107.873 103.508 107.264 103.508 106.609Z" fill="black"/>
<path d="M26.5034 57.0569C24.9956 56.1733 23.3247 55.5688 21.1016 56.7116L21.0803 56.7225L21.0602 56.7349C19.3098 57.8019 17.6005 58.8691 16.6944 60.1619C16.2252 60.8313 15.9578 61.5763 16.0055 62.4169C16.0527 63.2488 16.4056 64.1227 17.0756 65.0627L17.0957 65.0912L17.1199 65.1174C20.6292 68.9688 22.037 74.8779 22.684 80.2705C23.3313 85.6657 22.3522 90.1811 21.9201 95.8102C20.2014 107.129 18.2335 114.803 25.7395 120.559C33.2454 126.314 51.9331 125.156 59.5718 113.261C67.8918 100.306 64.0908 84.9569 55.1595 81.4556C51.6875 80.0946 47.6412 79.0755 43.2094 79.5304C42.1677 79.6559 42.0397 79.9649 42.2018 80.7203C43.9692 89.1083 42.7059 96.2537 41.9718 97.7287C41.6584 98.6929 40.4441 100.223 39.2983 100.223C36.8802 100.223 37.4329 99.1148 37.5795 97.7287C41.5899 82.7646 31.0866 59.7427 26.5034 57.0569Z" fill="black"/>
<path d="M153.497 57.0569C155.004 56.1733 156.675 55.5688 158.898 56.7116L158.92 56.7225L158.94 56.7349C160.69 57.8019 162.399 58.8691 163.306 60.1619C163.775 60.8313 164.042 61.5763 163.995 62.4169C163.947 63.2488 163.594 64.1227 162.924 65.0627L162.904 65.0912L162.88 65.1174C159.371 68.9688 157.963 74.8779 157.316 80.2705C156.669 85.6657 157.648 90.1811 158.08 95.8102C159.799 107.129 161.766 114.803 154.261 120.559C146.755 126.314 128.067 125.156 120.428 113.261C112.108 100.306 115.909 84.9569 124.841 81.4556C128.313 80.0946 132.359 79.0755 136.791 79.5304C137.832 79.6559 137.96 79.9649 137.798 80.7203C136.031 89.1083 137.294 96.2537 138.028 97.7287C138.342 98.6929 139.556 100.223 140.702 100.223C143.12 100.223 142.567 99.1148 142.42 97.7287C138.41 82.7646 148.913 59.7427 153.497 57.0569Z" fill="black"/>
<path d="M70.4729 76.6926C73.4658 74.5965 77.2488 74.5484 80.1701 76.4535C82.0553 77.6829 82.6053 79.9901 82.6054 82.0184V87.7256C82.6721 89.7496 83.6344 91.3056 85.0744 92.3814C86.5279 93.4673 88.4725 94.0635 90.4501 94.1082C92.4277 94.1528 94.3896 93.645 95.8819 92.5843C97.3559 91.5364 98.394 89.9359 98.5505 87.7156V80.4026C98.5505 79.4818 98.6164 78.2443 99.4856 77.4201C100.573 76.3886 102.365 75.7961 104.22 75.6825C106.087 75.5683 108.126 75.9313 109.749 76.9325C111.291 77.8839 111.809 79.707 111.971 81.2787C112.733 88.6869 113.049 94.9748 112.765 100.233C112.481 105.489 111.597 109.752 109.935 113.089C108.265 116.441 105.818 118.84 102.461 120.367C99.1192 121.887 94.9056 122.529 89.7104 122.436C84.45 122.485 80.2521 121.82 76.9689 120.294C73.6657 118.759 71.3204 116.368 69.7547 113.042C68.1974 109.735 67.4189 105.519 67.1988 100.331C66.9786 95.1389 67.3162 88.9329 68.0186 81.6227C68.1933 79.8047 68.8376 77.838 70.4729 76.6926ZM103.508 106.609C103.508 105.127 101.851 104.238 100.57 104.984C92.2509 105.019 87.749 104.984 79.6135 105.019C78.347 104.267 76.6904 105.142 76.6903 106.615C76.6903 107.265 77.0348 107.869 77.6005 108.19C87.211 113.636 92.9856 113.717 102.596 108.199C103.163 107.873 103.508 107.264 103.508 106.609Z" stroke="black"/>
<path d="M26.5034 57.0569C24.9956 56.1733 23.3247 55.5688 21.1016 56.7116L21.0803 56.7225L21.0602 56.7349C19.3098 57.8019 17.6005 58.8691 16.6944 60.1619C16.2252 60.8313 15.9578 61.5763 16.0055 62.4169C16.0527 63.2488 16.4056 64.1227 17.0756 65.0627L17.0957 65.0912L17.1199 65.1174C20.6292 68.9688 22.037 74.8779 22.684 80.2705C23.3313 85.6657 22.3522 90.1811 21.9201 95.8102C20.2014 107.129 18.2335 114.803 25.7395 120.559C33.2454 126.314 51.9331 125.156 59.5718 113.261C67.8918 100.306 64.0908 84.9569 55.1595 81.4556C51.6875 80.0946 47.6412 79.0755 43.2094 79.5304C42.1677 79.6559 42.0397 79.9649 42.2018 80.7203C43.9692 89.1083 42.7059 96.2537 41.9718 97.7287C41.6584 98.6929 40.4441 100.223 39.2983 100.223C36.8802 100.223 37.4329 99.1148 37.5795 97.7287C41.5899 82.7646 31.0866 59.7427 26.5034 57.0569Z" stroke="black"/>
<path d="M153.497 57.0569C155.004 56.1733 156.675 55.5688 158.898 56.7116L158.92 56.7225L158.94 56.7349C160.69 57.8019 162.399 58.8691 163.306 60.1619C163.775 60.8313 164.042 61.5763 163.995 62.4169C163.947 63.2488 163.594 64.1227 162.924 65.0627L162.904 65.0912L162.88 65.1174C159.371 68.9688 157.963 74.8779 157.316 80.2705C156.669 85.6657 157.648 90.1811 158.08 95.8102C159.799 107.129 161.766 114.803 154.261 120.559C146.755 126.314 128.067 125.156 120.428 113.261C112.108 100.306 115.909 84.9569 124.841 81.4556C128.313 80.0946 132.359 79.0755 136.791 79.5304C137.832 79.6559 137.96 79.9649 137.798 80.7203C136.031 89.1083 137.294 96.2537 138.028 97.7287C138.342 98.6929 139.556 100.223 140.702 100.223C143.12 100.223 142.567 99.1148 142.42 97.7287C138.41 82.7646 148.913 59.7427 153.497 57.0569Z" stroke="black"/>
</svg>
